<?xml version="1.0" encoding="iso-8859-1"?>
<!-- Generator: Adobe Illustrator 19.0.0, SVG Export Plug-In . SVG Version: 6.00 Build 0)  -->
<svg version="1.1" id="Layer_1" xmlns="http://www.w3.org/2000/svg" xmlns:xlink="http://www.w3.org/1999/xlink" x="0px" y="0px"
	 viewBox="0 0 512.001 512.001" style="enable-background:new 0 0 512.001 512.001;" xml:space="preserve">
<path style="fill:#FF507D;" d="M256.001,8.258v82.581c0,9.122,7.395,16.516,16.516,16.516h16.471c7.109,0,14.18-2.732,18.7-8.22
	c8.322-10.104,20.909-16.555,35.023-16.555c28.283,0,50.527,25.851,44.395,55.213c-3.66,17.527-18.07,31.535-35.673,34.812
	c-17.388,3.237-33.4-3.451-43.426-15.358c-4.634-5.504-11.509-8.602-18.704-8.602h-16.796c-9.116,0-16.505,7.39-16.505,16.505V256
	h-90.85c-9.116,0-16.505-7.39-16.505-16.505v-16.796c0-7.195,3.098-14.07,8.602-18.704c11.908-10.026,18.595-26.038,15.358-43.426
	c-3.277-17.603-17.285-32.013-34.812-35.673c-29.362-6.132-55.213,16.113-55.213,44.395c0,14.114,6.45,26.701,16.555,35.023
	c5.488,4.52,8.22,11.591,8.22,18.7v16.471c0,9.122-7.394,16.516-16.516,16.516H8.259c-4.561-0.001-8.258-3.698-8.258-8.259V33.032
	C0.001,14.789,14.79,0,33.033,0h214.71C252.304,0,256.001,3.697,256.001,8.258z"/>
<path style="fill:#FFDC64;" d="M503.743,256h-82.581c-9.122,0-16.516,7.395-16.516,16.516v16.471c0,7.109,2.732,14.18,8.22,18.7
	c10.104,8.322,16.555,20.909,16.555,35.023c0,28.283-25.85,50.527-55.213,44.395c-17.527-3.66-31.535-18.07-34.812-35.673
	c-3.237-17.388,3.451-33.4,15.358-43.426c5.504-4.634,8.602-11.509,8.602-18.704v-16.796c0-9.116-7.39-16.505-16.505-16.505h-90.85
	v-90.85c0-9.116,7.39-16.505,16.505-16.505h16.796c7.195,0,14.07,3.098,18.704,8.602c10.026,11.908,26.038,18.595,43.426,15.358
	c17.603-3.277,32.013-17.285,35.673-34.812c6.132-29.362-16.113-55.213-44.395-55.213c-14.114,0-26.701,6.45-35.023,16.555
	c-4.52,5.488-11.591,8.22-18.7,8.22h-16.471c-9.122,0-16.516-7.394-16.516-16.516V8.258C256.001,3.697,259.698,0,264.259,0h214.71
	C497.212,0,512,14.789,512,33.032v214.71C512,252.303,508.304,256,503.743,256z"/>
<path style="fill:#B4E66E;" d="M256.001,503.742v-82.581c0-9.122-7.395-16.516-16.516-16.516h-16.471
	c-7.109,0-14.18,2.732-18.7,8.22c-8.322,10.104-20.909,16.555-35.023,16.555c-28.283,0-50.527-25.85-44.395-55.213
	c3.66-17.527,18.07-31.535,35.673-34.812c17.388-3.237,33.4,3.451,43.426,15.358c4.634,5.504,11.509,8.602,18.704,8.602h16.796
	c9.116,0,16.505-7.39,16.505-16.505V256h90.85c9.116,0,16.505,7.39,16.505,16.505v16.796c0,7.195-3.098,14.07-8.602,18.704
	c-11.908,10.026-18.595,26.038-15.358,43.426c3.277,17.603,17.285,32.013,34.812,35.673c29.362,6.132,55.213-16.113,55.213-44.395
	c0-14.114-6.45-26.701-16.555-35.023c-5.488-4.52-8.22-11.591-8.22-18.7v-16.471c0-9.122,7.394-16.516,16.516-16.516h82.581
	c4.561,0,8.258,3.697,8.258,8.258v214.71C512,497.211,497.212,512,478.969,512h-214.71C259.698,512,256.001,508.303,256.001,503.742
	z"/>
<path style="fill:#00C3FF;" d="M8.259,256H90.84c9.122,0,16.516-7.395,16.516-16.516v-16.471c0-7.109-2.732-14.18-8.22-18.7
	c-10.104-8.322-16.555-20.909-16.555-35.023c0-28.283,25.851-50.527,55.213-44.395c17.527,3.66,31.535,18.07,34.812,35.673
	c3.237,17.388-3.451,33.4-15.358,43.426c-5.504,4.634-8.602,11.509-8.602,18.704v16.796c0,9.116,7.39,16.505,16.505,16.505h90.85
	v90.85c0,9.116-7.39,16.505-16.505,16.505H222.7c-7.195,0-14.07-3.098-18.704-8.602c-10.026-11.908-26.038-18.595-43.426-15.358
	c-17.603,3.277-32.013,17.285-35.673,34.812c-6.132,29.362,16.113,55.213,44.395,55.213c14.114,0,26.701-6.45,35.023-16.555
	c4.52-5.488,11.591-8.22,18.7-8.22h16.471c9.122,0,16.516,7.394,16.516,16.516v82.581c0,4.561-3.697,8.258-8.258,8.258H33.033
	C14.79,512,0.001,497.211,0.001,478.967v-214.71C0.001,259.697,3.698,256,8.259,256z"/>
<g>
	<path style="fill:#00AAF0;" d="M24.775,478.967v-214.71c0-4.561,3.697-8.258,8.258-8.258H8.259c-4.561,0-8.258,3.697-8.258,8.258
		v214.71c0,18.243,14.789,33.032,33.032,33.032h24.774C39.564,511.999,24.775,497.211,24.775,478.967z"/>
	<path style="fill:#00AAF0;" d="M99.136,204.313c5.488,4.52,8.22,11.591,8.22,18.7v16.471C107.357,248.605,99.962,256,90.84,256
		h16.516c9.122,0,16.517-7.395,16.516-16.516v-16.471c0-7.109-2.732-14.18-8.22-18.7c-10.104-8.322-16.554-20.909-16.554-35.023
		c0-22.284,16.072-40.754,37.241-44.614c-28.752-5.105-53.757,16.803-53.757,44.614C82.582,183.404,89.032,195.991,99.136,204.313z"
		/>
</g>
<path style="fill:#D23C69;" d="M24.776,247.742V33.032C24.776,14.789,39.565,0,57.808,0H33.033C14.79,0,0.001,14.789,0.001,33.032
	v214.71c0,4.56,3.697,8.258,8.258,8.258h24.775C28.473,256,24.776,252.302,24.776,247.742z"/>
<g>
	<path style="fill:#FFC850;" d="M351.432,172.605c-0.06,0.011-0.118,0.01-0.178,0.021c5.309,0.946,10.91,1.055,16.694-0.021
		c17.603-3.277,32.013-17.285,35.673-34.812c6.132-29.362-16.112-55.213-44.395-55.213c-2.828,0-5.571,0.325-8.254,0.821
		c24.164,4.454,41.651,27.967,36.133,54.392C383.446,155.321,369.035,169.328,351.432,172.605z"/>
	<path style="fill:#FFC850;" d="M272.517,107.355h16.471c0.008,0,0.016-0.002,0.023-0.002c-9.111-0.012-16.494-7.4-16.494-16.514
		V8.258c0-4.561,3.697-8.258,8.258-8.258h-16.516c-4.561,0-8.258,3.697-8.258,8.258v82.581
		C256.001,99.96,263.396,107.355,272.517,107.355z"/>
	<path style="fill:#FFC850;" d="M289.022,148.645h-16.516c-9.115,0-16.505,7.39-16.505,16.505V256h16.516v-90.85
		C272.517,156.035,279.907,148.645,289.022,148.645z"/>
	<path style="fill:#FFC850;" d="M390.724,387.105c-17.527-3.66-31.535-18.071-34.812-35.673c-3.237-17.388,3.451-33.4,15.358-43.426
		c5.504-4.634,8.602-11.51,8.602-18.705v-16.796c0-9.115-7.39-16.505-16.505-16.505h-16.516c9.115,0,16.505,7.39,16.505,16.505
		v16.796c0,7.195-3.098,14.071-8.602,18.705c-11.907,10.026-18.595,26.038-15.358,43.426c3.277,17.603,17.285,32.013,34.812,35.673
		c6.227,1.3,12.273,1.259,17.971,0.219C391.692,387.237,391.213,387.207,390.724,387.105z"/>
</g>
<g>
	<path style="fill:#A0D755;" d="M272.517,346.849V256h-16.516v90.849c0,9.116-7.39,16.506-16.505,16.506h16.516
		C265.127,363.355,272.517,355.965,272.517,346.849z"/>
	<path style="fill:#A0D755;" d="M141.412,374.207c3.66-17.527,18.071-31.535,35.673-34.813c0.059-0.011,0.117-0.01,0.176-0.021
		c-5.309-0.946-10.909-1.056-16.692,0.021c-17.603,3.277-32.013,17.285-35.673,34.813c-6.132,29.362,16.112,55.213,44.395,55.213
		c2.828,0,5.571-0.325,8.254-0.821C153.381,424.145,135.894,400.631,141.412,374.207z"/>
	<path style="fill:#A0D755;" d="M272.517,503.742v-82.581c0-9.121-7.395-16.516-16.516-16.516l-16.471,0.001
		c-0.007,0-0.013,0.002-0.02,0.002c9.11,0.014,16.491,7.401,16.491,16.514v82.581c0,4.56,3.697,8.258,8.258,8.258h16.516
		C276.214,512,272.517,508.302,272.517,503.742z"/>
</g>
<g>
</g>
<g>
</g>
<g>
</g>
<g>
</g>
<g>
</g>
<g>
</g>
<g>
</g>
<g>
</g>
<g>
</g>
<g>
</g>
<g>
</g>
<g>
</g>
<g>
</g>
<g>
</g>
<g>
</g>
</svg>
